<svg width="20" height="21" viewBox="0 0 20 21" fill="none" xmlns="http://www.w3.org/2000/svg">
<g id="linear/setting">
<path id="Vector" d="M7.04501 17.2358C7.04501 18.9023 8.36974 20.2549 10.002 20.2549C11.6343 20.2549 12.959 18.9023 12.959 17.2358" stroke="#111111" stroke-width="1.5" stroke-linecap="round" stroke-linejoin="round"/>
<path id="Icon awesome-bell" d="M16.4257 7.41243C16.4257 11.4984 17.8783 13.7458 18.6543 14.5752C18.8777 14.809 19.0016 15.1196 19 15.442C18.9998 15.6102 18.9663 15.7766 18.9014 15.9319C18.8365 16.0871 18.7414 16.2281 18.6217 16.3469C18.5019 16.4656 18.3597 16.5596 18.2033 16.6237C18.047 16.6877 17.8794 16.7205 17.7103 16.7201H2.28977C2.12063 16.7205 1.95308 16.6877 1.7967 16.6237C1.64031 16.5596 1.49817 16.4656 1.37838 16.3469C1.2586 16.2281 1.16353 16.0871 1.09862 15.9319C1.0337 15.7766 1.00021 15.6102 1.00006 15.442C0.996934 15.1203 1.11872 14.8099 1.34006 14.5752C2.11605 13.7458 3.56862 11.4984 3.56862 7.41243C3.56723 5.94613 4.07996 4.5252 5.01859 3.39409C5.95723 2.26299 7.26307 1.49245 8.71146 1.21504C9.24809 1.1272 10.5137 1.00422 11.2829 1.21504C12.7313 1.49245 14.0371 2.26299 14.9757 3.39409C15.9144 4.5252 16.4271 5.94613 16.4257 7.41243Z" stroke="#111111" stroke-width="1.5"/>
</g>
</svg>
