<svg width="32" height="33" viewBox="0 0 32 33" fill="none" xmlns="http://www.w3.org/2000/svg">
<path d="M31.1622 21.7914L27.9589 18.8051V11.4465C28.0015 8.71398 26.9763 6.05944 25.0726 3.97302C23.1689 1.8866 20.5153 0.509212 17.6016 0.0951943C15.9107 -0.111262 14.1917 0.0189935 12.5593 0.477271C10.927 0.935548 9.41882 1.71131 8.13547 2.75279C6.85212 3.79427 5.8231 5.07753 5.11706 6.51693C4.41103 7.95633 4.04422 9.51878 4.0411 11.1V18.8051L0.837827 21.7914C0.43547 22.1706 0.162618 22.6514 0.0533808 23.1737C-0.0558567 23.6959 0.00336702 24.2364 0.223648 24.7276C0.443929 25.2188 0.815494 25.6389 1.29189 25.9354C1.76829 26.2319 2.32839 26.3916 2.90216 26.3946H8.88161V26.9556C8.96473 28.6306 9.76065 30.2067 11.0949 31.3386C12.4292 32.4705 14.1931 33.0658 16 32.9942C17.8069 33.0658 19.5708 32.4705 20.9051 31.3386C22.2394 30.2067 23.0353 28.6306 23.1184 26.9556V26.3946H29.0978C29.6716 26.3916 30.2317 26.2319 30.7081 25.9354C31.1845 25.6389 31.5561 25.2188 31.7764 24.7276C31.9966 24.2364 32.0559 23.6959 31.9466 23.1737C31.8374 22.6514 31.5645 22.1706 31.1622 21.7914ZM19.5592 26.9556C19.4605 27.7492 19.0354 28.4769 18.3723 28.9871C17.7093 29.4973 16.8595 29.7507 16 29.6944C15.1405 29.7507 14.2907 29.4973 13.6277 28.9871C12.9646 28.4769 12.5395 27.7492 12.4408 26.9556V26.3946H19.5592V26.9556ZM4.45041 23.0948L6.55034 21.1479C6.88342 20.8409 7.14768 20.4759 7.32788 20.0738C7.50809 19.6717 7.60067 19.2405 7.6003 18.8051V11.1C7.60127 9.98701 7.85902 8.88706 8.35626 7.874C8.8535 6.86093 9.57872 5.9582 10.4832 5.22639C11.3756 4.47681 12.4329 3.91595 13.5821 3.58264C14.7313 3.24933 15.9449 3.15153 17.1389 3.296C19.197 3.60581 21.0651 4.59449 22.3992 6.08001C23.7334 7.56553 24.4438 9.44788 24.3997 11.3805V18.8051C24.397 19.2393 24.4868 19.6698 24.6639 20.0719C24.841 20.4739 25.102 20.8396 25.4319 21.1479L27.5496 23.0948H4.45041Z" fill="black"/>
</svg>
