<svg width="24" height="24" viewBox="0 0 24 24" fill="none" xmlns="http://www.w3.org/2000/svg">
<g id="ic:baseline-apple">
<path id="Vector" d="M16.6371 19.28C15.6571 20.23 14.5871 20.08 13.5571 19.63C12.4671 19.17 11.4671 19.15 10.3171 19.63C8.87708 20.25 8.11708 20.07 7.25708 19.28C2.37708 14.25 3.09708 6.59 8.63708 6.31C9.98708 6.38 10.9271 7.05 11.7171 7.11C12.8971 6.87 14.0271 6.18 15.2871 6.27C16.7971 6.39 17.9371 6.99 18.6871 8.07C15.5671 9.94 16.3071 14.05 19.1671 15.2C18.5971 16.7 17.8571 18.19 16.6271 19.29L16.6371 19.28ZM11.6171 6.25C11.4671 4.02 13.2771 2.18 15.3571 2C15.6471 4.58 13.0171 6.5 11.6171 6.25Z" fill="white"/>
</g>
</svg>
