<svg width="39" height="39" viewBox="0 0 39 39" fill="none" xmlns="http://www.w3.org/2000/svg">
<path d="M33.2644 31.2953L27.8032 25.7955C29.5652 23.5282 30.5213 20.7284 30.5177 17.846C30.5177 15.279 29.7641 12.7697 28.3522 10.6354C26.9402 8.50101 24.9334 6.83748 22.5854 5.85515C20.2374 4.87281 17.6538 4.61579 15.1612 5.11658C12.6686 5.61737 10.379 6.85348 8.58195 8.6686C6.78489 10.4837 5.56108 12.7963 5.06527 15.314C4.56946 17.8316 4.82393 20.4412 5.79649 22.8128C6.76905 25.1844 8.41603 27.2114 10.5292 28.6375C12.6423 30.0636 15.1266 30.8248 17.6681 30.8248C20.5217 30.8284 23.2937 29.8627 25.5385 28.083L30.9835 33.599C31.1329 33.7511 31.3105 33.8718 31.5062 33.9542C31.702 34.0365 31.9119 34.0789 32.124 34.0789C32.336 34.0789 32.5459 34.0365 32.7417 33.9542C32.9374 33.8718 33.115 33.7511 33.2644 33.599C33.4149 33.4482 33.5344 33.2688 33.616 33.0711C33.6975 32.8734 33.7395 32.6613 33.7395 32.4472C33.7395 32.233 33.6975 32.021 33.616 31.8233C33.5344 31.6256 33.4149 31.4461 33.2644 31.2953ZM8.03079 17.846C8.03079 15.9208 8.596 14.0388 9.65496 12.438C10.7139 10.8373 12.2191 9.58961 13.98 8.85286C15.741 8.11611 17.6787 7.92334 19.5482 8.29894C21.4176 8.67453 23.1348 9.60161 24.4826 10.963C25.8304 12.3243 26.7483 14.0587 27.1201 15.947C27.492 17.8352 27.3012 19.7924 26.5717 21.5711C25.8423 23.3498 24.6071 24.87 23.0222 25.9396C21.4374 27.0092 19.5741 27.5801 17.6681 27.5801C15.1121 27.5801 12.6608 26.5546 10.8535 24.7291C9.04614 22.9036 8.03079 20.4277 8.03079 17.846Z" fill="#231F20"/>
</svg>
