<svg width="30" height="33" viewBox="0 0 30 33" fill="none" xmlns="http://www.w3.org/2000/svg">
<path fill-rule="evenodd" clip-rule="evenodd" d="M20.8 8.10526C20.8 11.4104 18.0026 14.2105 14.4 14.2105C10.7974 14.2105 8 11.4104 8 8.10526C8 4.80015 10.7974 2 14.4 2C18.0026 2 20.8 4.80015 20.8 8.10526ZM22.8 8.10526C22.8 12.5817 19.0392 16.2105 14.4 16.2105C9.76081 16.2105 6 12.5817 6 8.10526C6 3.62885 9.76081 0 14.4 0C19.0392 0 22.8 3.62885 22.8 8.10526ZM24.2179 24.2047C26.1499 26.0689 27.4002 28.4512 27.8318 30.9999H15L2.16823 30.9999C2.59984 28.4512 3.85014 26.0689 5.78214 24.2047C8.21507 21.8571 11.5296 20.5262 15 20.5262C18.4704 20.5262 21.7849 21.8571 24.2179 24.2047ZM25.6066 22.7654C27.9265 25.0039 29.408 27.9001 29.8562 30.9999C29.9514 31.6588 30 32.3269 30 32.9999H28H15H2H0C0 32.3269 0.0485696 31.6588 0.143836 30.9999C0.591986 27.9001 2.07351 25.0039 4.3934 22.7654C7.20645 20.0511 11.0218 18.5262 15 18.5262C18.9782 18.5262 22.7936 20.0511 25.6066 22.7654Z" fill="black"/>
</svg>
