<svg width="24" height="25" viewBox="0 0 24 25" fill="none" xmlns="http://www.w3.org/2000/svg">
<path d="M9.04501 19.2358C9.04501 20.9023 10.3697 22.2549 12.002 22.2549C13.6343 22.2549 14.959 20.9023 14.959 19.2358" stroke="#111111" stroke-width="1.5" stroke-linecap="round" stroke-linejoin="round"/>
<path d="M18.4257 9.41243C18.4257 13.4984 19.8783 15.7458 20.6543 16.5752C20.8777 16.809 21.0016 17.1196 21 17.442C20.9998 17.6102 20.9663 17.7766 20.9014 17.9319C20.8365 18.0871 20.7414 18.2281 20.6217 18.3469C20.5019 18.4656 20.3597 18.5596 20.2033 18.6237C20.047 18.6877 19.8794 18.7205 19.7103 18.7201H4.28977C4.12063 18.7205 3.95308 18.6877 3.7967 18.6237C3.64031 18.5596 3.49817 18.4656 3.37838 18.3469C3.2586 18.2281 3.16353 18.0871 3.09862 17.9319C3.0337 17.7766 3.00021 17.6102 3.00006 17.442C2.99693 17.1203 3.11872 16.8099 3.34006 16.5752C4.11605 15.7458 5.56862 13.4984 5.56862 9.41243C5.56723 7.94613 6.07996 6.5252 7.01859 5.39409C7.95723 4.26299 9.26307 3.49245 10.7115 3.21504C11.2481 3.1272 12.5137 3.00422 13.2829 3.21504C14.7313 3.49245 16.0371 4.26299 16.9757 5.39409C17.9144 6.5252 18.4271 7.94613 18.4257 9.41243Z" stroke="#111111" stroke-width="1.5"/>
<circle cx="22" cy="2.5" r="2" fill="#68BE12"/>
</svg>
