<svg width="24" height="25" viewBox="0 0 24 25" fill="none" xmlns="http://www.w3.org/2000/svg">
<path fill-rule="evenodd" clip-rule="evenodd" d="M19.0631 12.2845C19.0631 16.5842 15.5788 20.069 11.2816 20.069C6.98437 20.069 3.5 16.5842 3.5 12.2845C3.5 7.98479 6.98437 4.5 11.2816 4.5C15.5788 4.5 19.0631 7.98479 19.0631 12.2845ZM17.816 18.8781C16.1387 20.5415 13.8301 21.569 11.2816 21.569C6.1555 21.569 2 17.4122 2 12.2845C2 7.15681 6.1555 3 11.2816 3C16.4076 3 20.5631 7.15681 20.5631 12.2845C20.5631 14.3215 19.9073 16.2053 18.7954 17.7361L21.7773 20.7189C22.0701 21.0119 22.0701 21.4868 21.7773 21.7798C21.4844 22.0727 21.0096 22.0727 20.7168 21.7798L17.816 18.8781Z" fill="black"/>
</svg>
